<svg xmlns="http://www.w3.org/2000/svg" viewBox="0 0 108 108" width="48" height="48">
    <circle fill="#073042" cx="54" cy="54" r="54" />
    <path fill="#3DDC84"
        d="M22 29.111v14.222h7.111V29.111h14.222V22H29.111c-3.911 0-7.111 3.2-7.111 7.111z
        M29.111 64.667H22v14.222c0 3.911 3.2 7.111 7.111 7.111h14.222v-7.111H29.111v-14.222z
        M78.889 78.889h-14.222v7.111h14.222c3.911 0 7.111-3.2 7.111-7.111v-14.222h-7.111v14.222z
        M78.889 22h-14.222v7.111h14.222v14.222h7.111V29.111c0-3.911-3.2-7.111-7.111-7.111z" />
</svg>
